<?xml version="1.0" encoding="utf-8"?>
<!-- Generator: Adobe Illustrator 14.0.0, SVG Export Plug-In . SVG Version: 6.00 Build 43363)  -->
<!DOCTYPE svg PUBLIC "-//W3C//DTD SVG 1.1//EN" "http://www.w3.org/Graphics/SVG/1.1/DTD/svg11.dtd">
<svg version="1.1" id="Layer_1" xmlns="http://www.w3.org/2000/svg" xmlns:xlink="http://www.w3.org/1999/xlink" x="0px" y="0px"
	 width="850.39px" height="221.1px" viewBox="0 0 850.39 221.1" enable-background="new 0 0 850.39 221.1" xml:space="preserve">
<g>
	<path fill="#FFFFFF" d="M110.04,75.86c8.011,0,13.966,1.224,17.868,3.661c3.911,2.453,5.872,6.597,5.872,12.458
		c0,3.516-0.4,7.228-1.177,11.135c12.893,25.587,21.679,49.708,26.372,72.36c11.713-35.937,17.573-64.641,17.573-86.133
		c0-3.113-0.295-6.155-0.881-9.083c6.448-2.926,13.184-4.398,20.223-4.398c8.003,0,13.965,1.224,17.868,3.661
		c3.909,2.453,5.856,6.597,5.856,12.458c0,11.333-4.244,29.447-12.738,54.346c-8.5,24.901-17.049,43.602-25.635,56.112
		c-7.232,10.935-18.164,16.396-32.813,16.396c-6.066,0-12.114-0.875-18.171-2.634c-3.714-18.357-8.201-37.888-13.481-58.595
		c-6.834,18.949-13.965,33.894-21.387,44.832c-7.224,10.935-18.162,16.396-32.812,16.396c-6.049,0-12.114-0.875-18.163-2.634
		c-4.3-21.679-11.233-46.331-20.797-73.98C14.037,114.594,6.034,97.065-0.416,89.634c8.993-8.197,18.363-12.303,28.131-12.303
		c10.554,0,18.359,5.854,23.438,17.574c8.795,26.57,16.119,53.431,21.973,80.569c11.721-35.937,17.581-64.641,17.581-86.133
		c0-3.113-0.291-6.155-0.873-9.083C96.079,77.332,102.813,75.86,110.04,75.86z"/>
	<path fill="#FFFFFF" d="M363.649,23.717c0,6.448-3.419,13.283-10.247,20.505c-4.889-5.074-11.626-7.617-20.227-7.617
		c-8.776,0-14.699,2.543-17.719,7.617c-3.026,5.086-4.551,13.089-4.551,24.027v11.125c17.396-0.385,30.28-1.16,38.684-2.338
		c1.36,2.737,2.044,6.739,2.044,12.016c0,6.442-1.8,10.894-5.412,13.324c-3.608,2.449-9.04,3.764-16.265,3.958
		c-9.174,0.199-15.518,0.295-19.051,0.295v56.544c0,24.023,1.765,41.797,5.282,53.321c-6.639,1.563-13.765,2.339-21.386,2.339
		c-10.348,0-17.476-1.17-21.383-3.518c-3.908-2.338-5.871-6.24-5.871-11.713c0-2.148,0.098-14.363,0.294-36.621
		c0.196-22.267,0.295-42.285,0.295-60.058c-3.71,0-10.839,0.589-21.386,1.751c-1.568-4.1-2.335-8.488-2.335-13.181
		c0-10.935,7.896-16.408,23.721-16.408c0-8.787,0.442-16.355,1.325-22.705c0.882-6.344,2.586-12.697,5.117-19.042
		c2.551-6.344,6.064-11.524,10.563-15.529c4.479-4.007,10.496-7.228,18.016-9.663c7.503-2.443,16.543-3.662,27.093-3.662
		C352.519,8.486,363.649,13.563,363.649,23.717z"/>
	<path fill="#FFFFFF" d="M488.729,201.553c-13.096,12.893-30.28,19.341-51.564,19.341c-21.295,0-38.44-6.448-51.419-19.341
		c-12.994-12.892-19.487-30.078-19.487-51.566c0-22.456,6.493-40.43,19.487-53.902c12.979-13.482,30.124-20.225,51.419-20.225
		c21.284,0,38.469,6.743,51.564,20.225c13.081,13.472,19.63,31.446,19.63,53.902C508.358,171.475,501.81,188.661,488.729,201.553z
		 M464.693,155.848c0-14.836-2.433-27.197-7.318-37.064c-4.886-9.856-11.622-14.797-20.211-14.797
		c-8.403,0-14.994,4.007-19.782,12.01c-4.791,8.013-7.181,18.566-7.181,31.654c0,12.878,2.39,23.576,7.181,32.074
		c4.788,8.492,11.379,12.747,19.782,12.747c8.785,0,15.573-3.37,20.356-10.115C462.313,175.619,464.693,166.793,464.693,155.848z"/>
	<path fill="#FFFFFF" d="M563.733,0.275c7.421,0,13.179,1.278,17.278,3.811c4.104,2.535,6.147,7.523,6.147,14.942
		c0,1.171-0.342,9.763-1.01,25.784c-0.688,16.015-1.034,28.022-1.034,36.035v80.27c0,25.785,1.655,43.756,4.988,53.906
		c-8.207,2.551-16.313,3.811-24.33,3.811c-9.17,0-15.581-1.6-19.193-4.833c-3.607-3.221-5.408-7.951-5.408-14.208
		c0-3.123,0.149-9.965,0.437-20.508c0.295-10.546,0.444-19.137,0.444-25.783V72.641c0-27.926-0.684-50.782-2.06-68.554
		C547.418,1.553,555.334,0.275,563.733,0.275z"/>
	<path fill="#FFFFFF" d="M651.857,65.613c-7.42,0-13.717-2.586-18.897-7.771c-5.169-5.167-7.767-11.76-7.767-19.772
		c0-7.61,2.743-14.06,8.207-19.336c5.459-5.277,11.822-7.908,19.043-7.908c7.229,0,13.423,2.631,18.607,7.908
		c5.168,5.277,7.767,11.727,7.767,19.336c0,7.816-2.747,14.362-8.211,19.627C665.131,62.979,658.886,65.613,651.857,65.613z
		 M652.443,77.921c7.425,0,13.18,1.266,17.287,3.811c4.1,2.533,6.158,7.515,6.158,14.936c0,1.166-0.342,9.768-1.029,25.78
		c-0.684,16.011-1.029,28.03-1.029,36.042c0,27.725,1.65,46.578,4.987,56.533c-8.211,2.551-16.315,3.811-24.33,3.811
		c-9.17,0-15.565-1.6-19.177-4.833c-3.628-3.221-5.428-7.951-5.428-14.208c0-3.123,0.148-10.444,0.443-21.973
		c0.295-11.518,0.44-20.703,0.44-27.539c0-27.926-0.688-50.779-2.063-68.549C636.128,79.187,644.044,77.921,652.443,77.921z"/>
	<path fill="#FFFFFF" d="M830.361,201.553c-13.097,12.893-30.281,19.341-51.565,19.341c-21.304,0-38.44-6.448-51.419-19.341
		c-12.998-12.892-19.491-30.078-19.491-51.566c0-22.456,6.493-40.43,19.491-53.902c12.979-13.482,30.115-20.225,51.419-20.225
		c21.284,0,38.469,6.743,51.565,20.225c13.076,13.472,19.617,31.446,19.617,53.902C849.979,171.475,843.438,188.661,830.361,201.553
		z M806.326,155.848c0-14.836-2.434-27.197-7.327-37.064c-4.886-9.856-11.618-14.797-20.203-14.797
		c-8.407,0-14.995,4.007-19.786,12.01c-4.791,8.013-7.177,18.566-7.177,31.654c0,12.878,2.386,23.576,7.177,32.074
		c4.791,8.492,11.379,12.747,19.786,12.747c8.781,0,15.562-3.37,20.353-10.115C803.936,175.619,806.326,166.793,806.326,155.848z"/>
</g>
</svg>
