<svg width="512" height="512" viewBox="0 0 512 512" fill="none" xmlns="http://www.w3.org/2000/svg">
<rect width="512" height="512" fill="black"/>
<path d="M255.5 114C271.464 114 283.436 115.972 291.418 120.902C299.4 125.833 303.391 133.721 303.391 145.554C303.391 152.456 302.393 159.359 301.395 167.247C327.336 217.537 344.298 264.868 354.275 310.226C377.223 239.23 389.195 183.024 389.195 140.624C389.195 134.707 388.198 128.791 387.2 122.875C400.17 116.958 413.141 114 427.109 114C443.073 114 455.045 115.972 463.027 120.902C471.009 125.833 475 133.721 475 145.554C475 168.233 466.02 203.732 450.057 253.035C433.095 302.338 416.134 338.822 399.173 363.474C385.205 385.167 363.255 396.014 333.323 396.014C321.35 396.014 309.377 394.042 297.405 391.084C290.42 354.599 281.441 316.143 270.466 275.714C256.498 313.185 242.53 342.767 227.564 364.46C213.595 386.153 191.645 397 161.714 397C149.741 397 137.768 395.028 125.795 392.07C116.816 349.669 103.845 300.366 83.891 246.132C64.934 191.899 48.97 157.387 36 142.596C53.959 126.819 72.916 117.944 91.873 117.944C112.825 117.944 128.789 129.777 138.766 152.456C156.725 204.718 170.693 257.965 182.666 311.213C205.614 240.216 217.586 184.01 217.586 141.61C217.586 135.693 216.589 129.777 215.591 123.861C227.564 116.958 240.534 114 255.5 114Z" fill="white"/>
</svg>
